# xmcd CD database file
#
# Track frame offsets:
#	150
#	19237
#	40562
#	58542
#	80360
#	107252
#	126955
#	146992
#	167407
#	185172
#
# Disc length: 2658 seconds
#
# Revision: 0
# Processed by: cddbd v1.5.1PL0 Copyright (c) Steve Scherf et al.
# Submitted via: CDex 1.51
#
DISCID=7f0a600a
DTITLE=秋吉契里 - 存在
DYEAR=1997
DGENRE=JPop
TTITLE0=いつか…
TTITLE1=僕がいなくても
TTITLE2=HAPPY BIRTHDAY FOR YOU
TTITLE3=熱くならなきゃだめこれも恋だから
TTITLE4=存在
TTITLE5=あなたをただ愛してただそれだけで生きてゆける
TTITLE6=ねぇ…
TTITLE7=愛なんて
TTITLE8=雲の階段
TTITLE9=運命の扉
EXTD=YEAR: 1997
EXTT0=
EXTT1=
EXTT2=
EXTT3=
EXTT4=
EXTT5=
EXTT6=
EXTT7=
EXTT8=
EXTT9=
PLAYORDER=
